<?xml version="1.0" encoding="UTF-8"?>
<svg width="24px" height="24px" viewBox="0 0 24 24" version="1.1" xmlns="http://www.w3.org/2000/svg" xmlns:xlink="http://www.w3.org/1999/xlink">
    <!-- Generator: Sketch 57.1 (83088) - https://sketch.com -->
    <title>search</title>
    <desc>Created with Sketch.</desc>
    <defs>
        <path d="M11.7099609,0.572509766 C9.46940104,1.29012044 7.99951172,3.05419922 7.30029297,5.86474609 C6.25146484,10.0805664 4.95166016,10.6181641 0.719970703,9.11865234 C2.23974609,11.9257813 5.32006836,13.0512695 7.30029297,13.0512695 C9.28051758,13.0512695 14.4091797,10.2941895 13.8215332,5.0534668 C13.3114421,3.52709961 12.6075846,2.03344727 11.7099609,0.572509766 Z" id="path-1"></path>
        <path d="M7.91917136,0 C12.2928089,0 15.8383427,3.54553379 15.8383427,7.91917136 C15.8383427,9.74656332 15.2193872,11.4293905 14.1796858,12.769443 L19.7100661,18.3101411 C20.0966446,18.6967197 20.0966446,19.3234875 19.7100661,19.7100661 C19.3234875,20.0966446 18.6967197,20.0966446 18.3101411,19.7100661 L12.7795222,14.1718528 C11.4378333,15.2162776 9.75114785,15.8383427 7.91917136,15.8383427 C3.54553379,15.8383427 0,12.2928089 0,7.91917136 C0,3.54553379 3.54553379,0 7.91917136,0 Z M7.91917136,1.97979284 C4.63894318,1.97979284 1.97979284,4.63894318 1.97979284,7.91917136 C1.97979284,11.1993995 4.63894318,13.8585499 7.91917136,13.8585499 C11.1993995,13.8585499 13.8585499,11.1993995 13.8585499,7.91917136 C13.8585499,4.63894318 11.1993995,1.97979284 7.91917136,1.97979284 Z" id="path-3"></path>
    </defs>
    <g id="search" stroke="none" stroke-width="1" fill="none" fill-rule="evenodd">
        <g transform="translate(2.000000, 2.000000)">
            <g id="Color/Fill" transform="translate(1.000000, 2.000000)">
                <mask id="mask-2" fill="white">
                    <use xlink:href="#path-1"></use>
                </mask>
                <use id="Mask" fill="#D8D8D8" xlink:href="#path-1"></use>
                <g mask="url(#mask-2)" fill="#FFA0A0">
                    <g transform="translate(-3.000000, -4.000000)">
                        <rect x="0" y="0" width="24" height="24"></rect>
                    </g>
                </g>
            </g>
            <g id="Color/Stroke">
                <mask id="mask-4" fill="white">
                    <use xlink:href="#path-3"></use>
                </mask>
                <use id="Mask" fill="#000000" fill-rule="nonzero" xlink:href="#path-3"></use>
                <g mask="url(#mask-4)" fill="#7600FF">
                    <g transform="translate(-2.000000, -2.000000)">
                        <rect x="0" y="0" width="24" height="24"></rect>
                    </g>
                </g>
            </g>
        </g>
    </g>
</svg>