<?xml version="1.0" encoding="UTF-8"?>
<svg width="24px" height="24px" viewBox="0 0 24 24" version="1.1" xmlns="http://www.w3.org/2000/svg" xmlns:xlink="http://www.w3.org/1999/xlink">
    <!-- Generator: Sketch 57.1 (83088) - https://sketch.com -->
    <title>thunder</title>
    <desc>Created with Sketch.</desc>
    <defs>
        <polygon id="path-1" points="2.9765625 8.16149902 8.26928711 9.24145508 0.218139648 18.5194092 1.88208008 19.6043701 12.1279297 8.16149902 5.89337158 6.80944824 8.82104492 0.998168945 7.38708496 0.184936523"></polygon>
        <path d="M10.2577032,5.88540233 L13.3683613,6.4682972 C14.894984,6.75436548 15.5271239,8.59550311 14.4981974,9.75899885 L5.15432684,20.3249168 C3.62851509,22.0502834 0.875362777,20.253925 1.83997631,18.1623916 L4.9166534,11.4913543 L2.63023839,11.061225 C1.27422934,10.8061273 0.577759703,9.28698125 1.26946216,8.09308716 L5.3804761,0.997384038 C5.7381351,0.380056504 6.3975623,0 7.11101395,0 L10.1949866,0 C11.7353835,0 12.697534,1.66821829 11.9261411,3.00155082 L10.2577032,5.88540233 Z M10.1949866,2 L7.11101395,2 L3,9.09570312 L7.80692226,10 L3.65612945,19 L13,8.43408203 L7.11101395,7.33056641 L10.1949866,2 Z" id="path-3"></path>
    </defs>
    <g id="thunder" stroke="none" stroke-width="1" fill="none" fill-rule="evenodd">
        <g transform="translate(4.000000, 2.000000)">
            <g id="Color/Fill" transform="translate(2.000000, 0.000000)">
                <mask id="mask-2" fill="white">
                    <use xlink:href="#path-1"></use>
                </mask>
                <use id="Mask" fill="#D8D8D8" xlink:href="#path-1"></use>
                <g mask="url(#mask-2)" fill="#FFA0A0">
                    <g transform="translate(-6.000000, -2.000000)">
                        <rect x="0" y="0" width="24" height="24"></rect>
                    </g>
                </g>
            </g>
            <g id="Color/Stroke">
                <mask id="mask-4" fill="white">
                    <use xlink:href="#path-3"></use>
                </mask>
                <use id="Mask" fill="#000000" fill-rule="nonzero" xlink:href="#path-3"></use>
                <g mask="url(#mask-4)" fill="#7600FF">
                    <g transform="translate(-4.000000, -2.000000)">
                        <rect x="0" y="0" width="24" height="24"></rect>
                    </g>
                </g>
            </g>
        </g>
    </g>
</svg>